<svg width="60" height="54" viewBox="0 0 60 54" fill="none" xmlns="http://www.w3.org/2000/svg">
  <path
    d="M53.0665 4.03268C52.3999 2.06602 50.5332 0.666016 48.3332 0.666016H11.6665C9.46654 0.666016 7.63321 2.06602 6.93321 4.03268L-0.00012207 23.9993V50.666C-0.00012207 52.4993 1.49988 53.9993 3.33321 53.9993H6.66654C8.49988 53.9993 9.99988 52.4993 9.99988 50.666V47.3327H49.9999V50.666C49.9999 52.4993 51.4999 53.9993 53.3332 53.9993H56.6665C58.4999 53.9993 59.9999 52.4993 59.9999 50.666V23.9993L53.0665 4.03268ZM11.6665 37.3327C8.89988 37.3327 6.66654 35.0993 6.66654 32.3327C6.66654 29.566 8.89988 27.3327 11.6665 27.3327C14.4332 27.3327 16.6665 29.566 16.6665 32.3327C16.6665 35.0993 14.4332 37.3327 11.6665 37.3327ZM48.3332 37.3327C45.5665 37.3327 43.3332 35.0993 43.3332 32.3327C43.3332 29.566 45.5665 27.3327 48.3332 27.3327C51.0999 27.3327 53.3332 29.566 53.3332 32.3327C53.3332 35.0993 51.0999 37.3327 48.3332 37.3327ZM6.66654 20.666L11.6665 5.66602H48.3332L53.3332 20.666H6.66654Z"
    fill="#BF9D7D" />
  <path
    d="M53.0665 4.03268C52.3999 2.06602 50.5332 0.666016 48.3332 0.666016H11.6665C9.46654 0.666016 7.63321 2.06602 6.93321 4.03268L-0.00012207 23.9993V50.666C-0.00012207 52.4993 1.49988 53.9993 3.33321 53.9993H6.66654C8.49988 53.9993 9.99988 52.4993 9.99988 50.666V47.3327H49.9999V50.666C49.9999 52.4993 51.4999 53.9993 53.3332 53.9993H56.6665C58.4999 53.9993 59.9999 52.4993 59.9999 50.666V23.9993L53.0665 4.03268ZM11.6665 37.3327C8.89988 37.3327 6.66654 35.0993 6.66654 32.3327C6.66654 29.566 8.89988 27.3327 11.6665 27.3327C14.4332 27.3327 16.6665 29.566 16.6665 32.3327C16.6665 35.0993 14.4332 37.3327 11.6665 37.3327ZM48.3332 37.3327C45.5665 37.3327 43.3332 35.0993 43.3332 32.3327C43.3332 29.566 45.5665 27.3327 48.3332 27.3327C51.0999 27.3327 53.3332 29.566 53.3332 32.3327C53.3332 35.0993 51.0999 37.3327 48.3332 37.3327ZM6.66654 20.666L11.6665 5.66602H48.3332L53.3332 20.666H6.66654Z"
    fill="black" fill-opacity="0.2" />
</svg>