<svg width="74" height="40" viewBox="0 0 74 40" fill="none" xmlns="http://www.w3.org/2000/svg">
  <path
    d="M50.3332 0L60.3332 13.3333H66.9999C70.6999 13.3333 73.6666 16.3 73.6666 20V30H66.9999C66.9999 32.6522 65.9463 35.1957 64.071 37.0711C62.1956 38.9464 59.6521 40 56.9999 40C54.3477 40 51.8042 38.9464 49.9288 37.0711C48.0535 35.1957 46.9999 32.6522 46.9999 30H26.9999C26.9999 32.6522 25.9463 35.1957 24.071 37.0711C22.1956 38.9464 19.6521 40 16.9999 40C14.3478 40 11.8042 38.9464 9.92885 37.0711C8.05349 35.1957 6.99992 32.6522 6.99992 30H0.333252V20C0.333252 16.3 3.29992 13.3333 6.99992 13.3333L16.9999 0H50.3332ZM31.9999 5H19.4999L13.1999 13.3333H31.9999V5ZM36.9999 5V13.3333H54.1332L47.8332 5H36.9999ZM16.9999 25C15.6738 25 14.4021 25.5268 13.4644 26.4645C12.5267 27.4021 11.9999 28.6739 11.9999 30C11.9999 31.3261 12.5267 32.5978 13.4644 33.5355C14.4021 34.4732 15.6738 35 16.9999 35C18.326 35 19.5978 34.4732 20.5355 33.5355C21.4731 32.5978 21.9999 31.3261 21.9999 30C21.9999 28.6739 21.4731 27.4021 20.5355 26.4645C19.5978 25.5268 18.326 25 16.9999 25ZM56.9999 25C55.6738 25 54.4021 25.5268 53.4644 26.4645C52.5267 27.4021 51.9999 28.6739 51.9999 30C51.9999 31.3261 52.5267 32.5978 53.4644 33.5355C54.4021 34.4732 55.6738 35 56.9999 35C58.326 35 59.5978 34.4732 60.5354 33.5355C61.4731 32.5978 61.9999 31.3261 61.9999 30C61.9999 28.6739 61.4731 27.4021 60.5354 26.4645C59.5978 25.5268 58.326 25 56.9999 25Z"
    fill="#BF9D7D" />
  <path
    d="M50.3332 0L60.3332 13.3333H66.9999C70.6999 13.3333 73.6666 16.3 73.6666 20V30H66.9999C66.9999 32.6522 65.9463 35.1957 64.071 37.0711C62.1956 38.9464 59.6521 40 56.9999 40C54.3477 40 51.8042 38.9464 49.9288 37.0711C48.0535 35.1957 46.9999 32.6522 46.9999 30H26.9999C26.9999 32.6522 25.9463 35.1957 24.071 37.0711C22.1956 38.9464 19.6521 40 16.9999 40C14.3478 40 11.8042 38.9464 9.92885 37.0711C8.05349 35.1957 6.99992 32.6522 6.99992 30H0.333252V20C0.333252 16.3 3.29992 13.3333 6.99992 13.3333L16.9999 0H50.3332ZM31.9999 5H19.4999L13.1999 13.3333H31.9999V5ZM36.9999 5V13.3333H54.1332L47.8332 5H36.9999ZM16.9999 25C15.6738 25 14.4021 25.5268 13.4644 26.4645C12.5267 27.4021 11.9999 28.6739 11.9999 30C11.9999 31.3261 12.5267 32.5978 13.4644 33.5355C14.4021 34.4732 15.6738 35 16.9999 35C18.326 35 19.5978 34.4732 20.5355 33.5355C21.4731 32.5978 21.9999 31.3261 21.9999 30C21.9999 28.6739 21.4731 27.4021 20.5355 26.4645C19.5978 25.5268 18.326 25 16.9999 25ZM56.9999 25C55.6738 25 54.4021 25.5268 53.4644 26.4645C52.5267 27.4021 51.9999 28.6739 51.9999 30C51.9999 31.3261 52.5267 32.5978 53.4644 33.5355C54.4021 34.4732 55.6738 35 56.9999 35C58.326 35 59.5978 34.4732 60.5354 33.5355C61.4731 32.5978 61.9999 31.3261 61.9999 30C61.9999 28.6739 61.4731 27.4021 60.5354 26.4645C59.5978 25.5268 58.326 25 56.9999 25Z"
    fill="black" fill-opacity="0.2" />
</svg>