<svg width="54" height="64" viewBox="0 0 54 64" fill="none" xmlns="http://www.w3.org/2000/svg">
  <path
    d="M27 0.666504C13.6667 0.666504 0.333374 2.33317 0.333374 13.9998V45.6665C0.333374 52.0998 5.56671 57.3332 12 57.3332L7.00004 62.3332V63.9998H14.4334L21.1 57.3332H33.6667L40.3334 63.9998H47V62.3332L42 57.3332C48.4334 57.3332 53.6667 52.0998 53.6667 45.6665V13.9998C53.6667 2.33317 41.7334 0.666504 27 0.666504ZM12 50.6665C9.23337 50.6665 7.00004 48.4332 7.00004 45.6665C7.00004 42.8998 9.23337 40.6665 12 40.6665C14.7667 40.6665 17 42.8998 17 45.6665C17 48.4332 14.7667 50.6665 12 50.6665ZM23.6667 27.3332H7.00004V13.9998H23.6667V27.3332ZM30.3334 27.3332V13.9998H47V27.3332H30.3334ZM42 50.6665C39.2334 50.6665 37 48.4332 37 45.6665C37 42.8998 39.2334 40.6665 42 40.6665C44.7667 40.6665 47 42.8998 47 45.6665C47 48.4332 44.7667 50.6665 42 50.6665Z"
    fill="#BF9D7D" />
  <path
    d="M27 0.666504C13.6667 0.666504 0.333374 2.33317 0.333374 13.9998V45.6665C0.333374 52.0998 5.56671 57.3332 12 57.3332L7.00004 62.3332V63.9998H14.4334L21.1 57.3332H33.6667L40.3334 63.9998H47V62.3332L42 57.3332C48.4334 57.3332 53.6667 52.0998 53.6667 45.6665V13.9998C53.6667 2.33317 41.7334 0.666504 27 0.666504ZM12 50.6665C9.23337 50.6665 7.00004 48.4332 7.00004 45.6665C7.00004 42.8998 9.23337 40.6665 12 40.6665C14.7667 40.6665 17 42.8998 17 45.6665C17 48.4332 14.7667 50.6665 12 50.6665ZM23.6667 27.3332H7.00004V13.9998H23.6667V27.3332ZM30.3334 27.3332V13.9998H47V27.3332H30.3334ZM42 50.6665C39.2334 50.6665 37 48.4332 37 45.6665C37 42.8998 39.2334 40.6665 42 40.6665C44.7667 40.6665 47 42.8998 47 45.6665C47 48.4332 44.7667 50.6665 42 50.6665Z"
    fill="black" fill-opacity="0.2" />
</svg>