<svg width="24" height="25" viewBox="0 0 24 25" fill="none" xmlns="http://www.w3.org/2000/svg">
<g clip-path="url(#clip0_40_7563)">
<path d="M20 10.5V7.5C20 6.4 19.1 5.5 18 5.5H6C4.9 5.5 4 6.4 4 7.5V10.5C2.9 10.5 2 11.4 2 12.5V17.5H3.33L4 19.5H5L5.67 17.5H18.34L19 19.5H20L20.67 17.5H22V12.5C22 11.4 21.1 10.5 20 10.5ZM11 10.5H6V7.5H11V10.5ZM18 10.5H13V7.5H18V10.5Z" fill="#BF9D7D"/>
</g>
<defs>
<clipPath id="clip0_40_7563">
<rect width="24" height="24" fill="white" transform="translate(0 0.5)"/>
</clipPath>
</defs>
</svg>
