<svg width="20" height="17" viewBox="0 0 20 17" fill="none" xmlns="http://www.w3.org/2000/svg">
  <path
    d="M0 3.25C0 2.52065 0.289731 1.82118 0.805456 1.30546C1.32118 0.789731 2.02065 0.5 2.75 0.5H17.25C17.9793 0.5 18.6788 0.789731 19.1945 1.30546C19.7103 1.82118 20 2.52065 20 3.25V13.75C20 14.1111 19.9289 14.4687 19.7907 14.8024C19.6525 15.136 19.4499 15.4392 19.1945 15.6945C18.9392 15.9499 18.636 16.1525 18.3024 16.2907C17.9687 16.4289 17.6111 16.5 17.25 16.5H2.75C2.38886 16.5 2.03127 16.4289 1.69762 16.2907C1.36398 16.1525 1.06082 15.9499 0.805456 15.6945C0.550095 15.4392 0.347532 15.136 0.209331 14.8024C0.0711308 14.4687 0 14.1111 0 13.75V3.25ZM14.78 3.72C14.6395 3.57931 14.4488 3.50017 14.25 3.5H11.75C11.5511 3.5 11.3603 3.57902 11.2197 3.71967C11.079 3.86032 11 4.05109 11 4.25C11 4.44891 11.079 4.63968 11.2197 4.78033C11.3603 4.92098 11.5511 5 11.75 5H12.44L10.72 6.719C10.6463 6.78766 10.5872 6.87046 10.5462 6.96246C10.5052 7.05446 10.4832 7.15377 10.4814 7.25448C10.4796 7.35518 10.4982 7.45521 10.5359 7.5486C10.5736 7.64199 10.6297 7.72682 10.701 7.79804C10.7722 7.86926 10.857 7.9254 10.9504 7.96312C11.0438 8.00084 11.1438 8.01937 11.2445 8.01759C11.3452 8.01581 11.4445 7.99377 11.5365 7.95278C11.6285 7.91179 11.7113 7.85269 11.78 7.779L13.5 6.06V6.75C13.5 6.94891 13.579 7.13968 13.7197 7.28033C13.8603 7.42098 14.0511 7.5 14.25 7.5C14.4489 7.5 14.6397 7.42098 14.7803 7.28033C14.921 7.13968 15 6.94891 15 6.75V4.25C14.9998 4.05115 14.9207 3.86052 14.78 3.72ZM5.75 13.5H8.251C8.44991 13.5 8.64068 13.421 8.78133 13.2803C8.92198 13.1397 9.001 12.9489 9.001 12.75C9.001 12.5511 8.92198 12.3603 8.78133 12.2197C8.64068 12.079 8.44991 12 8.251 12H7.561L9.281 10.28C9.41755 10.1385 9.49306 9.949 9.49126 9.75235C9.48946 9.5557 9.41049 9.36763 9.27137 9.22864C9.13225 9.08965 8.9441 9.01086 8.74745 9.00924C8.5508 9.00763 8.36139 9.08331 8.22 9.22L6.5 10.938V10.248C6.5 10.0491 6.42098 9.85832 6.28033 9.71767C6.13968 9.57702 5.94891 9.498 5.75 9.498C5.55109 9.498 5.36032 9.57702 5.21967 9.71767C5.07902 9.85832 5 10.0491 5 10.248V12.748C5 12.9469 5.07902 13.1377 5.21967 13.2783C5.36032 13.419 5.55109 13.498 5.75 13.498V13.5Z"
    fill="#BF9D7D" />
</svg>